<svg version="1.1" id="Layer_1" xmlns="http://www.w3.org/2000/svg" xmlns:xlink="http://www.w3.org/1999/xlink" x="0px" y="0px"
	 width="100%" viewBox="0 0 800 800" enable-background="new 0 0 800 800" xml:space="preserve">
<path fill="#000000" opacity="1.000000" stroke="none" 
	d="
M377.000000,1.000000 
	C392.354218,1.000000 407.708466,1.000000 423.917725,1.125529 
	C436.504669,2.426643 448.311615,3.105898 459.954803,4.867477 
	C500.846802,11.054276 540.045105,23.001238 577.141357,41.332363 
	C630.940735,67.917313 676.758667,104.592003 714.153564,151.589066 
	C757.738770,206.365952 785.212463,268.347992 796.348633,337.473267 
	C798.352112,349.909180 799.472107,362.487457 801.000000,375.000000 
	C801.000000,392.020905 801.000000,409.041779 800.952515,426.933929 
	C800.721863,428.611572 800.422729,429.410858 800.372620,430.225433 
	C798.962158,453.179016 795.342468,475.801666 789.690613,498.067749 
	C770.653931,573.064453 733.252686,637.404602 677.299316,690.901917 
	C634.880554,731.458679 585.869202,761.198547 530.349548,780.177490 
	C506.373383,788.373474 481.857056,794.364868 456.683258,797.518982 
	C447.454987,798.675232 438.227722,799.839417 429.000000,801.000000 
	C410.312439,801.000000 391.624878,801.000000 372.096924,800.855408 
	C370.440765,800.558228 369.630981,800.328918 368.808258,800.264282 
	C350.723846,798.843933 332.822083,796.175171 315.104980,792.303284 
	C258.813263,780.001160 207.468094,756.642578 161.458267,722.060669 
	C106.768661,680.954834 64.890030,629.303406 36.499741,566.901367 
	C23.078531,537.401489 13.396901,506.758148 7.393877,474.875885 
	C4.343326,458.674286 2.932287,442.316467 1.000000,426.000000 
	C1.000000,408.979095 1.000000,391.958221 1.000499,374.065338 
	C1.271186,371.728302 1.671662,370.273865 1.791995,368.796600 
	C3.562403,347.062164 6.892780,325.562988 12.216940,304.425476 
	C25.852751,250.289810 49.373283,200.857376 83.651497,156.716354 
	C132.868927,93.337685 195.364029,48.347347 271.258057,22.117664 
	C295.512695,13.735025 320.353271,7.834725 345.814545,4.376153 
	C356.192291,2.966470 366.648407,2.508240 377.000000,1.000000 
M104.433182,640.089783 
	C134.525757,677.295349 170.304352,707.825989 211.785721,731.696777 
	C263.642700,761.538391 319.561035,778.018555 379.155945,781.442444 
	C407.594452,783.076294 436.025269,781.614929 464.240997,776.752930 
	C515.808655,767.867065 563.631287,749.461548 607.475891,720.957825 
	C666.983521,682.271667 712.395264,630.956909 743.709412,567.260559 
	C762.752930,528.524048 774.553589,487.583130 779.499512,444.742126 
	C782.272034,420.727539 782.489441,396.626709 780.829102,372.460419 
	C779.285095,349.986572 775.767456,327.857971 770.141968,306.127930 
	C758.468994,261.037079 739.267151,219.362503 712.261597,181.302673 
	C680.748596,136.890335 641.594177,100.817673 594.796570,73.053078 
	C541.400452,41.373676 483.519562,24.093189 421.653839,20.564482 
	C401.400085,19.409246 381.059753,19.964485 360.786316,22.163288 
	C328.858673,25.626080 297.828491,32.720688 267.802368,44.060265 
	C207.233368,66.934601 155.648788,102.755623 113.159615,151.665405 
	C82.214317,187.286880 58.658215,227.292969 42.647408,271.607483 
	C24.250299,322.526794 17.283966,375.076630 21.186628,429.147522 
	C23.255405,457.810181 28.435356,485.816559 36.868690,513.218872 
	C51.143311,559.601318 73.628822,601.673401 104.433182,640.089783 
z"/>
<path fill="#000000" opacity="1.000000" stroke="none" 
	d="
M254.470886,661.624268 
	C241.425400,651.581604 235.363373,638.801025 235.497543,622.529480 
	C235.805038,585.238037 235.587296,547.942261 235.578552,510.648254 
	C235.576126,500.332306 234.465576,498.909424 225.039810,495.105560 
	C173.873886,474.457062 140.871902,437.345093 127.496490,383.985992 
	C110.280815,315.306732 140.978592,244.525513 202.247833,208.862747 
	C216.279999,200.695099 231.202881,194.513901 247.253845,191.559998 
	C253.913010,190.334503 257.829803,186.762024 261.039734,180.797226 
	C286.929901,132.687408 327.439636,104.751434 381.185822,96.984459 
	C446.718292,87.514221 512.438721,122.284340 542.778809,181.481979 
	C545.752930,187.284927 549.744019,190.248566 555.892395,191.592484 
	C617.850769,205.135361 666.040466,254.746811 677.213074,317.459717 
	C686.087463,367.272705 673.904724,411.854523 641.275574,450.628235 
	C624.066895,471.077576 602.517273,485.488892 577.715332,495.193237 
	C568.196228,498.917847 567.377869,500.140839 567.376709,510.260345 
	C567.373413,540.592468 567.395935,570.924561 567.365356,601.256714 
	C567.354614,611.885498 568.559387,622.630737 566.497803,633.109863 
	C562.094360,655.491882 543.860474,670.235352 520.963013,670.287598 
	C480.631500,670.379700 440.299622,670.313049 399.967896,670.313293 
	C360.969452,670.313599 321.970978,670.305420 282.972534,670.321045 
	C272.706207,670.325134 263.218872,667.803711 254.470886,661.624268 
M215.988388,470.487427 
	C234.064285,479.962006 253.181625,485.660400 273.647858,486.731293 
	C287.364624,487.449036 300.855316,486.013672 314.358551,483.727997 
	C320.348816,482.714020 324.432220,485.907623 325.259705,490.741486 
	C326.136475,495.863007 323.124908,499.884125 317.069916,501.354370 
	C300.084839,505.478607 282.889526,506.519531 265.526672,504.547943 
	C258.271912,503.724152 254.150467,506.934662 254.122818,514.144958 
	C254.023132,540.141113 254.116318,566.138062 254.027695,592.134338 
	C254.013809,596.206787 255.598557,597.762451 259.689087,597.682678 
	C269.184235,597.497437 278.689056,597.472351 288.182709,597.693298 
	C292.590820,597.795959 294.056122,596.043762 293.985565,591.788635 
	C293.866852,584.634399 293.820923,577.445312 294.396973,570.323669 
	C294.876343,564.396851 299.179901,560.840210 304.243835,561.124390 
	C309.654602,561.428162 313.287689,565.541931 313.353546,571.620239 
	C313.423950,578.118652 313.358765,584.618469 313.381531,591.117554 
	C313.403564,597.407471 313.597290,597.618164 319.883423,597.623108 
	C339.547607,597.638550 359.212006,597.686951 378.875854,597.605591 
	C393.374451,597.545593 391.558258,599.484741 391.628479,584.866699 
	C391.706909,568.535828 391.591858,552.203857 391.682739,535.873108 
	C391.725555,528.177307 397.088257,523.359680 403.659027,524.822876 
	C408.406891,525.880127 411.299347,530.269165 411.317932,536.834839 
	C411.369812,555.165710 411.431244,573.497559 411.279510,591.827271 
	C411.244171,596.095215 412.614716,597.746338 417.031097,597.715393 
	C439.027252,597.560913 461.025574,597.566101 483.021790,597.715149 
	C487.369232,597.744568 488.888458,596.178650 488.902985,591.880371 
	C488.927704,584.565796 488.130676,577.202087 489.427917,569.935120 
	C490.498352,563.938599 494.144806,561.175354 499.885834,561.622986 
	C504.895111,562.013611 508.280426,565.877258 508.348999,571.511597 
	C508.430145,578.176453 508.568024,584.850525 508.308411,591.506104 
	C508.134979,595.951904 509.538757,597.860901 514.256165,597.730591 
	C523.747742,597.468262 533.256653,597.469543 542.748291,597.730408 
	C547.391357,597.858032 548.823608,596.080688 548.798340,591.587830 
	C548.654358,565.925232 548.758789,540.261353 548.702087,514.598083 
	C548.685669,507.167969 544.565735,504.149963 537.100769,504.797363 
	C519.772461,506.300201 502.501648,505.900482 485.537079,501.485779 
	C479.655609,499.955261 476.825989,495.817719 477.738892,490.573395 
	C478.714478,484.968964 484.043823,482.395477 491.690521,483.950623 
	C520.027954,489.713654 547.587402,487.466736 574.379333,476.292908 
	C625.831543,454.834198 660.014832,406.024323 661.531677,349.377625 
	C662.324890,319.757111 654.137573,292.405487 637.502869,267.852264 
	C620.660400,242.992630 598.009277,225.255554 569.838196,214.733551 
	C562.180969,211.873535 556.585571,216.858551 558.018372,224.901932 
	C558.599609,228.164917 559.182068,231.471039 559.258606,234.769241 
	C559.347595,238.605301 557.254578,241.500916 553.769531,242.985703 
	C550.497864,244.379578 547.206482,243.962799 544.395142,241.595596 
	C541.794556,239.405869 541.104065,236.309265 540.641907,233.137955 
	C538.732178,220.034180 534.946899,207.449448 529.312866,195.512405 
	C498.382996,129.979919 425.294159,98.504372 356.648499,121.442253 
	C324.468781,132.195068 299.656158,152.627869 281.757660,181.429626 
	C278.515411,186.646988 279.089325,187.730438 285.242645,187.574860 
	C294.291870,187.346069 303.197754,188.463165 312.013336,190.201416 
	C345.889038,196.880966 374.827728,212.591293 398.394836,237.950897 
	C426.617493,268.320190 440.872559,304.284180 441.304932,345.706177 
	C441.374603,352.381165 437.637970,356.347046 431.963837,356.338104 
	C426.249573,356.329102 422.666168,352.469360 422.714996,345.679749 
	C422.759521,339.488007 422.142151,333.341553 421.265991,327.286652 
	C415.899750,290.201752 398.585999,259.780945 369.314423,236.357635 
	C347.686432,219.050797 322.928192,208.758102 295.358795,206.536392 
	C255.504776,203.324738 220.014252,214.525757 189.593063,240.934952 
	C147.482574,277.491882 130.880142,337.096832 148.520905,389.918579 
	C160.320633,425.250610 182.749451,451.987457 215.988388,470.487427 
M450.499878,651.645447 
	C474.317047,651.643677 498.134491,651.707825 521.951294,651.615845 
	C536.594543,651.559265 548.285950,640.020569 548.711060,625.476562 
	C548.950500,617.283691 548.809937,617.146790 540.506226,617.148132 
	C452.566162,617.162048 364.626099,617.173767 276.686035,617.186584 
	C271.023224,617.187378 265.354645,617.351013 259.699493,617.144592 
	C255.246552,616.981934 253.941605,618.998047 254.026886,623.185608 
	C254.383331,640.687683 265.435577,651.632202 283.113159,651.637817 
	C338.575378,651.655334 394.037598,651.644836 450.499878,651.645447 
z"/>
</svg>